<?xml version="1.0" standalone="no"?>
<!DOCTYPE svg PUBLIC "-//W3C//DTD SVG 20010904//EN"
 "http://www.w3.org/TR/2001/REC-SVG-20010904/DTD/svg10.dtd">
<svg version="1.0" xmlns="http://www.w3.org/2000/svg"
 width="986.000000pt" height="986.000000pt" viewBox="0 0 986.000000 986.000000"
 preserveAspectRatio="xMidYMid meet">
<metadata>
Created by potrace 1.14, written by Peter Selinger 2001-2017
</metadata>
<g transform="translate(0.000000,986.000000) scale(0.100000,-0.100000)"
fill="#000000" stroke="none">
<path d="M5036 6347 c-13 -19 -61 -135 -272 -654 -29 -73 -65 -159 -79 -192
-14 -33 -25 -65 -25 -71 0 -16 255 -13 269 3 10 13 115 261 168 397 42 111 1
101 441 99 319 -1 386 1 398 13 15 15 174 409 169 418 -2 3 -240 7 -529 8
l-526 2 -14 -23z"/>
<path d="M7783 6351 c-29 -13 -48 -44 -77 -127 -18 -53 -116 -294 -183 -451
-4 -10 56 -13 281 -13 222 0 286 -3 286 -12 0 -14 -57 -159 -66 -168 -3 -3
-136 -7 -296 -10 l-291 -5 -33 -80 c-19 -44 -34 -85 -34 -92 0 -11 78 -13 392
-11 l393 3 38 95 c22 52 73 175 114 273 41 98 72 185 69 193 -4 11 -55 14
-283 16 -319 3 -294 -7 -240 106 l32 67 287 5 c172 3 291 9 296 15 15 15 72
157 72 177 0 17 -19 18 -278 18 -154 0 -319 2 -368 5 -49 3 -99 1 -111 -4z"/>
<path d="M880 6340 c0 -10 210 -375 452 -785 48 -82 88 -161 88 -174 0 -13
-55 -157 -121 -320 -67 -163 -152 -370 -189 -461 -37 -91 -100 -244 -140 -340
-128 -311 -212 -515 -217 -532 -7 -25 22 -33 51 -15 16 11 41 59 79 154 30 76
82 203 115 283 33 80 91 222 130 315 134 327 231 563 382 930 84 204 176 429
205 500 30 72 82 201 118 287 35 87 62 160 59 163 -3 3 -17 5 -32 5 -32 0 -27
8 -121 -220 -131 -320 -161 -390 -168 -390 -6 0 -34 47 -234 390 -49 85 -99
170 -109 188 l-20 32 -164 0 c-107 0 -164 -4 -164 -10z"/>
<path d="M6202 6338 c-6 -7 -28 -58 -50 -113 -22 -55 -81 -199 -132 -320 -133
-318 -210 -507 -210 -516 0 -5 218 -9 485 -9 l485 0 14 23 c8 12 32 67 54 122
22 55 103 252 181 438 78 186 144 349 147 363 l6 24 -96 0 -96 0 -25 -52 c-13
-29 -51 -118 -84 -198 -33 -80 -96 -230 -140 -335 l-80 -190 -90 -3 c-50 -1
-91 0 -91 3 0 6 19 51 80 195 11 25 58 140 106 255 47 116 95 230 105 254 31
71 30 71 -71 71 -109 0 -109 0 -161 -133 -20 -50 -76 -186 -124 -302 -49 -115
-100 -239 -115 -275 l-27 -65 -91 -3 c-51 -1 -92 -1 -92 2 0 2 24 62 54 133
29 70 90 218 136 328 45 110 91 220 101 244 31 71 31 71 -75 71 -63 0 -97 -4
-104 -12z"/>
<path d="M7372 6338 c-5 -7 -47 -103 -92 -213 -45 -110 -106 -256 -135 -325
-112 -265 -165 -397 -165 -408 0 -17 184 -16 198 1 6 6 42 89 80 182 39 94
103 247 142 340 103 246 170 414 170 425 0 15 -185 13 -198 -2z"/>
<path d="M8733 6338 c-5 -7 -54 -121 -108 -253 -54 -132 -107 -257 -117 -278
-10 -21 -16 -42 -13 -47 4 -6 118 -10 290 -10 l284 0 -31 -77 c-17 -43 -35
-82 -40 -88 -5 -6 -125 -12 -299 -15 l-291 -5 -33 -80 c-19 -44 -34 -86 -35
-93 0 -10 82 -12 392 -10 l393 3 58 140 c32 77 82 200 112 272 30 73 55 140
55 148 0 13 -36 15 -280 15 -221 0 -280 3 -280 13 0 13 49 132 63 155 6 9 76
12 291 12 215 0 286 3 294 13 9 11 82 182 82 192 0 3 -175 5 -389 5 -299 0
-391 -3 -398 -12z"/>
<path d="M2033 6318 c-8 -10 -364 -860 -398 -950 -7 -17 16 -18 383 -18 299 0
392 3 400 13 5 6 38 80 72 162 34 83 83 202 110 265 89 212 220 529 220 535 0
3 -175 5 -389 5 -299 0 -391 -3 -398 -12z m459 -198 l167 0 -65 -157 c-36 -87
-85 -210 -111 -273 -25 -63 -50 -121 -56 -127 -7 -10 -71 -13 -258 -13 -137 0
-249 2 -249 4 0 3 86 213 154 376 20 47 36 92 36 100 0 25 39 80 63 90 12 6
51 8 87 5 36 -3 140 -5 232 -5z"/>
<path d="M2947 6313 c-8 -10 -30 -54 -47 -98 -44 -111 -157 -383 -256 -617
-46 -109 -86 -209 -90 -223 l-6 -25 392 2 392 3 44 105 c25 58 59 139 75 180
17 41 59 143 94 225 34 83 90 216 124 297 34 82 59 152 56 158 -10 16 -40 12
-57 -7 -8 -10 -41 -81 -73 -158 -31 -77 -91 -221 -132 -320 -40 -99 -81 -198
-90 -220 -9 -22 -21 -46 -26 -52 -13 -18 -507 -19 -507 -1 0 11 48 130 215
527 47 112 85 212 85 222 0 17 -9 19 -88 19 -72 0 -92 -3 -105 -17z"/>
<path d="M3856 6311 c-9 -10 -32 -56 -50 -102 -18 -46 -78 -192 -134 -324
-177 -426 -212 -511 -212 -523 0 -17 184 -16 198 1 6 6 40 86 77 177 36 91 76
173 88 183 19 16 39 18 208 15 103 -2 191 -6 195 -10 4 -4 -21 -76 -56 -160
-35 -84 -70 -168 -77 -186 l-14 -33 83 3 82 3 24 60 c13 33 41 101 63 152 45
107 43 130 -16 157 l-36 17 60 30 c33 17 71 45 87 66 27 35 214 455 214 480 0
10 -75 13 -383 13 -363 0 -385 -1 -401 -19z m534 -205 c0 -28 -59 -145 -79
-155 -12 -7 -95 -11 -215 -11 l-195 0 34 81 c20 45 38 85 41 90 3 5 97 9 210
9 169 0 204 -2 204 -14z"/>
<path d="M4644 5399 c-17 -27 -130 -319 -126 -324 3 -3 180 -5 394 -5 213 0
388 -3 388 -7 0 -21 -156 -390 -169 -400 -13 -10 -428 -13 -1928 -12 -2074 0
-1952 3 -1981 -53 -7 -12 -21 -48 -31 -78 -10 -30 -35 -93 -55 -138 -20 -46
-36 -86 -36 -88 0 -2 935 -4 2079 -4 1651 0 2081 3 2088 13 18 22 424 1030
419 1042 -2 7 -155 18 -457 34 -250 12 -482 25 -515 28 -46 4 -63 2 -70 -8z"/>
<path d="M6350 5218 c-12 -29 -48 -116 -80 -193 -73 -177 -161 -389 -239 -575
-34 -80 -61 -148 -61 -153 0 -4 176 -6 391 -5 l392 3 38 89 c22 49 39 95 39
103 0 10 -55 13 -286 13 -226 0 -285 3 -281 13 2 7 53 131 113 276 88 213 113
265 132 272 13 5 146 9 296 9 l273 0 37 88 c20 48 36 93 36 100 0 9 -84 12
-389 12 l-388 0 -23 -52z"/>
<path d="M7343 5258 c-11 -14 -56 -119 -198 -463 -48 -115 -114 -274 -146
-352 -32 -78 -59 -144 -59 -148 0 -3 45 -4 101 -3 l100 3 55 130 c31 72 65
154 75 182 11 29 25 56 31 60 18 11 362 6 366 -5 1 -5 -27 -81 -63 -167 -37
-87 -70 -168 -75 -181 l-10 -24 100 0 100 0 19 38 c10 21 44 98 74 172 30 74
110 270 179 435 69 165 128 308 131 318 6 16 -16 17 -382 17 -299 0 -391 -3
-398 -12z m497 -191 c0 -2 -15 -41 -34 -88 l-34 -84 -191 -3 -191 -2 19 47
c34 84 49 118 57 126 7 6 374 11 374 4z"/>
<path d="M8292 5258 c-10 -13 -402 -950 -402 -962 0 -4 46 -5 102 -4 l101 3
76 183 c42 101 83 187 91 192 7 5 99 9 202 10 162 0 189 -2 194 -15 4 -9 -23
-89 -59 -178 -36 -89 -69 -170 -73 -179 -5 -16 2 -18 70 -18 90 0 81 -11 156
176 62 153 62 173 0 200 l-40 18 61 32 c85 46 95 57 144 159 37 77 165 381
165 391 0 2 -175 4 -389 4 -299 0 -391 -3 -399 -12z m526 -196 c14 -9 1 -56
-37 -130 l-21 -42 -206 0 -206 0 6 26 c4 15 20 55 36 90 l29 64 193 0 c106 0
199 -4 206 -8z"/>
<path d="M1230 4193 c-99 -16 -110 -41 -110 -238 l0 -157 28 -28 c23 -23 40
-29 98 -34 82 -8 243 8 260 26 7 7 15 56 19 109 7 91 6 98 -15 119 -20 20 -28
22 -99 15 -42 -4 -80 -10 -84 -15 -5 -4 -7 -20 -5 -36 2 -25 8 -29 35 -32 26
-3 34 -9 39 -29 11 -43 -6 -58 -70 -61 -82 -4 -86 1 -86 123 0 57 3 110 6 119
5 13 25 16 114 16 64 0 111 4 115 10 4 6 9 26 11 45 3 26 0 37 -15 45 -19 9
-188 12 -241 3z"/>
<path d="M2431 4186 c-8 -9 -11 -78 -9 -227 l3 -214 130 -3 c181 -4 199 5 211
111 11 89 -4 186 -31 213 -22 22 -33 24 -110 24 l-85 0 0 43 c0 24 -5 48 -12
55 -16 16 -83 15 -97 -2z m193 -192 c12 -5 16 -21 16 -74 0 -77 -11 -93 -62
-88 l-33 3 -3 74 c-3 79 3 91 45 91 12 0 28 -3 37 -6z"/>
<path d="M2961 4186 c-8 -9 -11 -78 -9 -227 l3 -214 57 -3 57 -3 3 88 3 88 69
3 c49 2 72 -1 78 -10 5 -7 8 -42 7 -78 0 -36 0 -71 0 -78 1 -9 17 -12 59 -10
l57 3 0 220 0 219 -33 10 c-21 6 -44 6 -60 0 -24 -8 -26 -13 -27 -82 -1 -42
-7 -78 -14 -85 -13 -13 -95 -16 -123 -5 -15 6 -18 21 -18 87 0 87 -3 91 -65
91 -18 0 -38 -6 -44 -14z"/>
<path d="M1737 4083 l-37 -4 2 -167 3 -167 55 0 55 0 3 109 c1 63 8 116 14
123 6 8 25 13 42 11 l31 -3 5 -120 5 -120 54 -3 c36 -2 57 1 63 10 5 7 8 59 6
116 -2 112 4 125 52 120 25 -3 25 -4 30 -123 l5 -120 57 -3 c55 -3 58 -2 64
23 4 14 4 77 2 138 -6 154 -25 186 -110 187 -26 0 -65 -7 -87 -16 -37 -14 -42
-14 -63 0 -28 20 -88 21 -131 2 -28 -11 -36 -11 -52 0 -10 8 -21 13 -24 12 -3
-1 -23 -3 -44 -5z"/>
<path d="M7495 3924 c-511 -12 -1310 -32 -1775 -43 -465 -12 -1029 -25 -1255
-31 -511 -12 -697 -19 -703 -25 -11 -11 69 -14 448 -20 223 -3 628 -10 900
-15 789 -15 1079 -20 1865 -31 407 -6 927 -14 1155 -18 281 -4 419 -3 427 4
14 12 83 171 83 191 0 17 52 18 -1145 -12z"/>
</g>
</svg>
